<mxfile host="app.diagrams.net" modified="2023-10-12T01:26:46.911Z" agent="Mozilla/5.0 (Macintosh; Intel Mac OS X 10_15_7) AppleWebKit/537.36 (KHTML, like Gecko) Chrome/117.0.0.0 Safari/537.36" etag="7rTtU2-sJEQneDgOIETB" version="22.0.4" type="device">
  <diagram name="Page-1" id="2YBvvXClWsGukQMizWep">
    <mxGraphModel dx="636" dy="349" grid="1" gridSize="10" guides="1" tooltips="1" connect="1" arrows="1" fold="1" page="1" pageScale="1" pageWidth="850" pageHeight="1100" math="0" shadow="0">
      <root>
        <mxCell id="0" />
        <mxCell id="1" parent="0" />
        <mxCell id="aM9ryv3xv72pqoxQDRHE-5" value=":System" style="shape=umlLifeline;perimeter=lifelinePerimeter;whiteSpace=wrap;html=1;container=0;dropTarget=0;collapsible=0;recursiveResize=0;outlineConnect=0;portConstraint=eastwest;newEdgeStyle={&quot;edgeStyle&quot;:&quot;elbowEdgeStyle&quot;,&quot;elbow&quot;:&quot;vertical&quot;,&quot;curved&quot;:0,&quot;rounded&quot;:0};" parent="1" vertex="1">
          <mxGeometry x="470" y="180" width="100" height="310" as="geometry" />
        </mxCell>
        <mxCell id="y5gPMH1k5wEBWP9fE6Nm-3" value=":Player" style="shape=umlActor;verticalLabelPosition=bottom;verticalAlign=top;html=1;outlineConnect=0;" vertex="1" parent="1">
          <mxGeometry x="320" y="130" width="30" height="60" as="geometry" />
        </mxCell>
        <mxCell id="y5gPMH1k5wEBWP9fE6Nm-4" value="" style="endArrow=none;dashed=1;html=1;dashPattern=1 3;strokeWidth=2;rounded=0;" edge="1" parent="1">
          <mxGeometry width="50" height="50" relative="1" as="geometry">
            <mxPoint x="335" y="490" as="sourcePoint" />
            <mxPoint x="335" y="220" as="targetPoint" />
          </mxGeometry>
        </mxCell>
        <mxCell id="y5gPMH1k5wEBWP9fE6Nm-6" value="Loop" style="shape=umlFrame;whiteSpace=wrap;html=1;pointerEvents=0;" vertex="1" parent="1">
          <mxGeometry x="220" y="240" width="380" height="240" as="geometry" />
        </mxCell>
        <mxCell id="y5gPMH1k5wEBWP9fE6Nm-9" value="&lt;font style=&quot;font-size: 10px;&quot;&gt;[while game &lt;br&gt;is running]&lt;/font&gt;" style="text;html=1;align=center;verticalAlign=middle;resizable=0;points=[];autosize=1;strokeColor=none;fillColor=none;rotation=0;" vertex="1" parent="1">
          <mxGeometry x="210" y="270" width="80" height="40" as="geometry" />
        </mxCell>
        <mxCell id="y5gPMH1k5wEBWP9fE6Nm-11" value="opt" style="shape=umlFrame;whiteSpace=wrap;html=1;pointerEvents=0;width=50;height=30;" vertex="1" parent="1">
          <mxGeometry x="272.5" y="310" width="287.5" height="160" as="geometry" />
        </mxCell>
        <mxCell id="y5gPMH1k5wEBWP9fE6Nm-12" value="&lt;font style=&quot;font-size: 10px;&quot;&gt;[if pickup&lt;br&gt;button&lt;br&gt;pressed]&lt;br&gt;&lt;/font&gt;" style="text;html=1;align=center;verticalAlign=middle;resizable=0;points=[];autosize=1;strokeColor=none;fillColor=none;" vertex="1" parent="1">
          <mxGeometry x="270" y="340" width="60" height="60" as="geometry" />
        </mxCell>
        <mxCell id="y5gPMH1k5wEBWP9fE6Nm-13" value="pickupItem(item)" style="html=1;verticalAlign=bottom;startArrow=oval;startFill=1;endArrow=block;startSize=8;curved=0;rounded=0;" edge="1" parent="1" target="aM9ryv3xv72pqoxQDRHE-5">
          <mxGeometry width="60" relative="1" as="geometry">
            <mxPoint x="340" y="340" as="sourcePoint" />
            <mxPoint x="400" y="340" as="targetPoint" />
          </mxGeometry>
        </mxCell>
        <mxCell id="y5gPMH1k5wEBWP9fE6Nm-15" value="remove item from game" style="html=1;verticalAlign=bottom;endArrow=open;dashed=1;endSize=8;curved=0;rounded=0;" edge="1" parent="1">
          <mxGeometry relative="1" as="geometry">
            <mxPoint x="517.5" y="420" as="sourcePoint" />
            <mxPoint x="333" y="420" as="targetPoint" />
          </mxGeometry>
        </mxCell>
        <mxCell id="y5gPMH1k5wEBWP9fE6Nm-16" value="add item to Player inventory" style="html=1;verticalAlign=bottom;endArrow=open;dashed=1;endSize=8;curved=0;rounded=0;" edge="1" parent="1">
          <mxGeometry relative="1" as="geometry">
            <mxPoint x="518" y="389.67" as="sourcePoint" />
            <mxPoint x="333" y="389.67" as="targetPoint" />
          </mxGeometry>
        </mxCell>
        <mxCell id="y5gPMH1k5wEBWP9fE6Nm-17" value="return that &quot;item&quot; was picked up" style="html=1;verticalAlign=bottom;endArrow=open;dashed=1;endSize=8;curved=0;rounded=0;" edge="1" parent="1" source="aM9ryv3xv72pqoxQDRHE-5">
          <mxGeometry relative="1" as="geometry">
            <mxPoint x="514.5" y="450" as="sourcePoint" />
            <mxPoint x="335" y="450" as="targetPoint" />
          </mxGeometry>
        </mxCell>
      </root>
    </mxGraphModel>
  </diagram>
</mxfile>
